<?xml version="1.0" encoding="UTF-8"?>
<svg class="app-logo" width="60" height="60" viewBox="0 0 20 20" fill="none" xmlns="http://www.w3.org/2000/svg">
    <!-- <path d="M15.573,11.624c0.568-0.478,0.947-1.219,0.947-2.019c0-1.37-1.108-2.569-2.371-2.569s-2.371,1.2-2.371,2.569c0,0.8,0.379,1.542,0.946,2.019c-0.253,0.089-0.496,0.2-0.728,0.332c-0.743-0.898-1.745-1.573-2.891-1.911c0.877-0.61,1.486-1.666,1.486-2.812c0-1.79-1.479-3.359-3.162-3.359S4.269,5.443,4.269,7.233c0,1.146,0.608,2.202,1.486,2.812c-2.454,0.725-4.252,2.998-4.252,5.685c0,0.218,0.178,0.396,0.395,0.396h16.203c0.218,0,0.396-0.178,0.396-0.396C18.497,13.831,17.273,12.216,15.573,11.624 M12.568,9.605c0-0.822,0.689-1.779,1.581-1.779s1.58,0.957,1.58,1.779s-0.688,1.779-1.58,1.779S12.568,10.427,12.568,9.605 M5.06,7.233c0-1.213,1.014-2.569,2.371-2.569c1.358,0,2.371,1.355,2.371,2.569S8.789,9.802,7.431,9.802C6.073,9.802,5.06,8.447,5.06,7.233 M2.309,15.335c0.202-2.649,2.423-4.742,5.122-4.742s4.921,2.093,5.122,4.742H2.309z M13.346,15.335c-0.067-0.997-0.382-1.928-0.882-2.732c0.502-0.271,1.075-0.429,1.686-0.429c1.828,0,3.338,1.385,3.535,3.161H13.346z" fill="white"></path> -->
    <path fill="white" d="M10.544,8.717l1.166-0.855l1.166,0.855l-0.467-1.399l1.012-0.778h-1.244L11.71,5.297l-0.466,1.244H10l1.011,0.778L10.544,8.717z M15.986,9.572l-0.467,1.244h-1.244l1.011,0.777l-0.467,1.4l1.167-0.855l1.165,0.855l-0.466-1.4l1.011-0.777h-1.244L15.986,9.572z M7.007,6.552c0-2.259,0.795-4.33,2.117-5.955C4.34,1.042,0.594,5.07,0.594,9.98c0,5.207,4.211,9.426,9.406,9.426c2.94,0,5.972-1.354,7.696-3.472c-0.289,0.026-0.987,0.044-1.283,0.044C11.219,15.979,7.007,11.759,7.007,6.552 M10,18.55c-4.715,0-8.551-3.845-8.551-8.57c0-3.783,2.407-6.999,5.842-8.131C6.549,3.295,6.152,4.911,6.152,6.552c0,5.368,4.125,9.788,9.365,10.245C13.972,17.893,11.973,18.55,10,18.55 M19.406,2.304h-1.71l-0.642-1.71l-0.642,1.71h-1.71l1.39,1.069l-0.642,1.924l1.604-1.176l1.604,1.176l-0.642-1.924L19.406,2.304z"></path>
</svg>