<?xml version="1.0" encoding="UTF-8"?>
<svg class="comment" width="30" height="30" viewBox="0 0 30 30" fill="none" xmlns="http://www.w3.org/2000/svg">
    <path d="M15 26.25C12.775 26.25 10.5999 25.5902 8.74984 24.354C6.89978 23.1179 5.45784 21.3609 4.60635 19.3052C3.75487 17.2495 3.53208 14.9875 3.96616 12.8052C4.40025 10.623 5.47171 8.61839 7.04505 7.04505C8.61839 5.47171 10.6229 4.40025 12.8052 3.96617C14.9875 3.53209 17.2495 3.75487 19.3052 4.60636C21.3609 5.45785 23.1179 6.89979 24.354 8.74984C25.5902 10.5999 26.25 12.775 26.25 15C26.25 16.86 25.8 18.6125 25 20.1588L26.25 26.25L20.1587 25C18.6137 25.7988 16.8587 26.25 15 26.25Z" stroke="white" stroke-width="3" stroke-linecap="round" stroke-linejoin="round"/>
</svg>                                        
