<?xml version="1.0" encoding="UTF-8"?>
<svg class="heart" width="32" height="31" viewBox="0 0 30 30" xmlns="http://www.w3.org/2000/svg">
    <path d="M25.2 6.24999C23.875 4.9215 22.1185 4.11067 20.2479 3.96396C18.3773 3.81724 16.516 4.34433 15 5.44999C13.4096 4.26704 11.43 3.73063 9.4599 3.94879C7.48981 4.16695 5.67555 5.12347 4.38247 6.62572C3.08938 8.12798 2.41353 10.0644 2.491 12.045C2.56848 14.0256 3.39352 15.9033 4.8 17.3L12.5625 25.075C13.2125 25.7147 14.088 26.0733 15 26.0733C15.912 26.0733 16.7875 25.7147 17.4375 25.075L25.2 17.3C26.6595 15.8316 27.4787 13.8453 27.4787 11.775C27.4787 9.70465 26.6595 7.71841 25.2 6.24999ZM23.4375 15.575L15.675 23.3375C15.5867 23.4267 15.4815 23.4975 15.3657 23.5458C15.2498 23.5941 15.1255 23.619 15 23.619C14.8745 23.619 14.7502 23.5941 14.6343 23.5458C14.5185 23.4975 14.4133 23.4267 14.325 23.3375L6.5625 15.5375C5.5822 14.5354 5.03326 13.1893 5.03326 11.7875C5.03326 10.3857 5.5822 9.03956 6.5625 8.03749C7.56144 7.05123 8.90872 6.4982 10.3125 6.4982C11.7163 6.4982 13.0636 7.05123 14.0625 8.03749C14.1787 8.15465 14.317 8.24765 14.4693 8.31111C14.6216 8.37457 14.785 8.40724 14.95 8.40724C15.115 8.40724 15.2784 8.37457 15.4307 8.31111C15.583 8.24765 15.7213 8.15465 15.8375 8.03749C16.8364 7.05123 18.1837 6.4982 19.5875 6.4982C20.9913 6.4982 22.3386 7.05123 23.3375 8.03749C24.3313 9.02643 24.8982 10.3652 24.9169 11.7671C24.9356 13.169 24.4046 14.5224 23.4375 15.5375V15.575Z" fill="white"/>
    <path d=""/>
</svg> 
