<?xml version="1.0" encoding="UTF-8"?>
<svg width ="32" height="26" viewBox="0 0 32 26" fill="none" xmlns="http://www.w3.org/2000/svg">
    <path d="M3.2 25.6C2.32 25.6 1.56693 25.2869 0.9408 24.6608C0.314667 24.0347 0.00106667 23.2811 0 22.4V3.2C0 2.32 0.3136 1.56693 0.9408 0.9408C1.568 0.314666 2.32107 0.00106667 3.2 0H28.8C29.68 0 30.4336 0.3136 31.0608 0.9408C31.688 1.568 32.0011 2.32107 32 3.2V22.4C32 23.28 31.6869 24.0336 31.0608 24.6608C30.4347 25.288 29.6811 25.6011 28.8 25.6H3.2ZM16 14.4L3.2 6.4V22.4H28.8V6.4L16 14.4ZM16 11.2L28.8 3.2H3.2L16 11.2ZM3.2 6.4V3.2V22.4V6.4Z" fill="white"/>
</svg>                                                            