<?xml version="1.0" encoding="UTF-8"?>
<svg width="30" height="30" viewBox="-2 0 32 32" fill="none" xmlns="http://www.w3.org/2000/svg">
    <path d="M29.5954 21.8917C28.2932 19.652 27.6017 16.4372 27.6017 12.6013C27.6017 9.25921 26.274 6.05402 23.9108 3.69083C21.5476 1.32763 18.3425 0 15.0004 0C11.6583 0 8.45314 1.32763 6.08994 3.69083C3.72674 6.05402 2.39911 9.25921 2.39911 12.6013C2.39911 16.4387 1.71054 19.652 0.408411 21.8917C0.142706 22.3485 0.00186154 22.8672 1.83268e-05 23.3957C-0.00182489 23.9242 0.135398 24.4438 0.39791 24.9025C0.658761 25.3614 1.03737 25.7424 1.49465 26.0061C1.95193 26.2698 2.47131 26.4067 2.99917 26.4027H8.42672C8.57558 28.0433 9.33253 29.5689 10.5489 30.6799C11.7652 31.7909 13.353 32.4069 15.0004 32.4069C16.6477 32.4069 18.2356 31.7909 19.4519 30.6799C20.6682 29.5689 21.4252 28.0433 21.5741 26.4027H27.0016C27.5287 26.4059 28.0471 26.2687 28.5036 26.005C28.96 25.7413 29.3379 25.3608 29.5984 24.9025C29.862 24.4445 30.0005 23.9252 30 23.3967C29.9995 22.8682 29.8599 22.3492 29.5954 21.8917ZM15.0004 28.8029C14.3087 28.803 13.6383 28.5642 13.1025 28.1268C12.5666 27.6894 12.1984 27.0804 12.0601 26.4027H17.9407C17.8024 27.0804 17.4341 27.6894 16.8983 28.1268C16.3625 28.5642 15.692 28.803 15.0004 28.8029ZM3.99827 22.8023C5.32591 20.102 5.99948 16.6727 5.99948 12.6013C5.99948 10.2141 6.94778 7.92467 8.63578 6.23667C10.3238 4.54867 12.6132 3.60036 15.0004 3.60036C17.3876 3.60036 19.677 4.54867 21.365 6.23667C23.053 7.92467 24.0013 10.2141 24.0013 12.6013C24.0013 16.6712 24.6734 20.102 26.001 22.8023H3.99827Z" fill="white"/>
</svg>                    