<?xml version="1.0" encoding="UTF-8"?>
<svg class="repost" width="30" height="30" viewBox="0 0 30 30" fill="none" xmlns="http://www.w3.org/2000/svg">
    <path d="M21.8105 3.49999C21.5381 3.50054 21.3154 3.72358 21.3154 3.99609V5.87304H5.85059C4.55506 5.87304 3.5 6.92855 3.5 8.22655V15.9375C3.5 16.2045 3.7174 16.4219 3.98438 16.4219H5.84766C6.11463 16.4219 6.33203 16.2045 6.33203 15.9375V8.708H21.3184V10.585C21.3184 10.6944 21.3534 10.8023 21.4249 10.8922C21.4648 10.943 21.5142 10.9855 21.5705 11.0172C21.6272 11.0492 21.6896 11.0697 21.7542 11.0774C21.8189 11.0851 21.8844 11.08 21.947 11.0623C22.0094 11.0446 22.0678 11.0148 22.1187 10.9746C22.1188 10.9745 22.119 10.9744 22.1192 10.9742L26.3165 7.67906L26.3357 7.66396L26.3517 7.64542C26.4476 7.53388 26.5041 7.39883 26.4987 7.25653C26.4933 7.11317 26.4254 6.98675 26.3189 6.90101L26.319 6.90099L26.3164 6.89899L22.12 3.60748C22.1196 3.60719 22.1193 3.6069 22.1189 3.60662C22.0313 3.53695 21.9225 3.49932 21.8105 3.49999ZM21.8105 3.49999C21.8109 3.49999 21.8112 3.49999 21.8115 3.49999V3.74999L21.8095 3.5C21.8098 3.5 21.8102 3.5 21.8105 3.49999ZM8.68457 24.1269H24.1553C25.4508 24.1269 26.5059 23.0714 26.5059 21.7734V14.0625H26.5061L26.5056 14.0511C26.494 13.7953 26.2847 13.5781 26.0156 13.5781H24.1523C23.8854 13.5781 23.668 13.7955 23.668 14.0625V21.292H8.68164V19.415C8.68164 19.3056 8.6466 19.1977 8.57506 19.1077C8.5352 19.0569 8.48575 19.0145 8.42953 18.9827C8.37285 18.9508 8.31039 18.9303 8.24576 18.9226C8.18114 18.9148 8.11562 18.92 8.05299 18.9377C7.99058 18.9553 7.93225 18.9851 7.88135 19.0253C7.88119 19.0255 7.88102 19.0256 7.88085 19.0257L3.68351 22.3209L3.66428 22.336L3.64834 22.3546C3.55242 22.4661 3.49589 22.6012 3.50128 22.7435C3.5067 22.8868 3.57462 23.0132 3.68106 23.099L3.6836 23.101L7.87996 26.3925C7.88034 26.3928 7.88073 26.3931 7.88112 26.3934C7.97109 26.4649 8.07904 26.5 8.18848 26.5C8.46131 26.5 8.68457 26.2767 8.68457 26.0039V24.1269Z" fill="white" stroke="white" stroke-width="0.5"/>
</svg>                                        
