<?xml version="1.0" encoding="UTF-8"?>
<svg class="share" width="30" height="30" viewBox="0 0 30 30" fill="none" xmlns="http://www.w3.org/2000/svg">
    <path d="M26.25 5C26.237 4.88517 26.2118 4.77204 26.175 4.6625V4.55C26.1151 4.41088 26.0304 4.28382 25.925 4.175C25.8189 4.07533 25.6962 3.99495 25.5625 3.9375H25.45C25.3348 3.84951 25.203 3.78573 25.0625 3.75H25C24.8757 3.73114 24.7493 3.73114 24.625 3.75L2.125 11.25C1.87491 11.3322 1.65716 11.4913 1.50279 11.7045C1.34842 11.9177 1.26531 12.1742 1.26531 12.4375C1.26531 12.7007 1.34842 12.9573 1.50279 13.1705C1.65716 13.3837 1.87491 13.5428 2.125 13.625L12.7875 17.175L16.3375 27.8375C16.4197 28.0876 16.5788 28.3053 16.792 28.4597C17.0052 28.6141 17.2618 28.6972 17.525 28.6972C17.7882 28.6972 18.0448 28.6141 18.258 28.4597C18.4712 28.3053 18.6303 28.0876 18.7125 27.8375L26.2125 5.3375C26.2403 5.22723 26.2529 5.11368 26.25 5ZM20.375 7.8625L13.4125 14.825L6.45 12.5L20.375 7.8625ZM17.5 23.55L15.175 16.5875L22.1375 9.625L17.5 23.55Z" fill="white"/>
</svg>                    